<svg xmlns="http://www.w3.org/2000/svg" version="1.1" xmlns:xlink="http://www.w3.org/1999/xlink" xmlns:svgjs="http://svgjs.dev/svgjs" viewBox="0 0 1422 800" width="1422" height="800"><g transform="scale(1) rotate(0) translate(0 0) skewX(0) skewY(0)" transform-origin="711 400"><rect width="2844" height="1600" x="-711" y="-400" fill="url(#rrreplicate-pattern1)"></rect></g><defs><pattern id="rrreplicate-pattern1" width="260" height="260" patternUnits="userSpaceOnUse" patternTransform="rotate(40)" stroke-width="0.6" fill="none" stroke="#000000" stroke-opacity="0.24">
      <line x1="10.833333333333334" y1="0" x2="10.833333333333334" y2="260"></line><line x1="32.5" y1="0" x2="32.5" y2="260"></line><line x1="54.16666666666667" y1="0" x2="54.16666666666667" y2="260"></line><line x1="75.83333333333333" y1="0" x2="75.83333333333333" y2="260"></line><line x1="97.5" y1="0" x2="97.5" y2="260"></line><line x1="119.16666666666667" y1="0" x2="119.16666666666667" y2="260"></line><line x1="140.83333333333334" y1="0" x2="140.83333333333334" y2="260"></line><line x1="162.50000000000003" y1="0" x2="162.50000000000003" y2="260"></line><line x1="184.16666666666669" y1="0" x2="184.16666666666669" y2="260"></line><line x1="205.83333333333334" y1="0" x2="205.83333333333334" y2="260"></line><line x1="227.50000000000003" y1="0" x2="227.50000000000003" y2="260"></line><line x1="249.16666666666669" y1="0" x2="249.16666666666669" y2="260"></line>
      </pattern></defs></svg>